<svg width="44" height="31" viewBox="0 0 44 31" fill="none" xmlns="http://www.w3.org/2000/svg">
<g clip-path="url(#clip0_342_452)">
<path d="M43.0174 4.83514C42.7652 3.90058 42.2732 3.04858 41.5903 2.36397C40.9075 1.67936 40.0577 1.18603 39.1256 0.9331C35.713 0 21.9784 0 21.9784 0C21.9784 0 8.2431 0.0282444 4.8305 0.961344C3.89833 1.21429 3.04852 1.70764 2.36569 2.39229C1.68286 3.07693 1.19084 3.92897 0.938628 4.86356C-0.0936041 10.9427 -0.494026 20.2058 0.966972 26.0417C1.21921 26.9763 1.71124 27.8283 2.39407 28.5129C3.0769 29.1975 3.92669 29.6908 4.85884 29.9438C8.27145 30.8769 22.0064 30.8769 22.0064 30.8769C22.0064 30.8769 35.7411 30.8769 39.1536 29.9438C40.0857 29.6909 40.9356 29.1975 41.6184 28.5129C42.3013 27.8283 42.7934 26.9763 43.0456 26.0417C44.1343 19.954 44.4698 10.6967 43.0174 4.83531V4.83514Z" fill="#FF0000"/>
<path d="M17.6055 22.0546L28.9995 15.4382L17.6056 8.82178L17.6055 22.0546Z" fill="white"/>
</g>
<defs>
<clipPath id="clip0_342_452">
<rect width="44" height="31" fill="white"/>
</clipPath>
</defs>
</svg>
